# xmcd
#
# Track frame offsets: 
#        150
#        15660
#        30690
#        43492
#        57224
#        70888
#        82839
#        97996
#        112232
#        124420
#        140331
#        160092
#        175132
#
# Disc length: 2512 seconds
#
# Revision: 0
# Processed by: cddbd v1.5.2PL0 Copyright (c) Steve Scherf et al.
# Submitted via: ExactAudioCopyFreeDBPlugin 1.0
#
DISCID=af09ce0d
DTITLE=Jo Vally - Jo Vally zingt country
DYEAR=1900
DGENRE=Country
TTITLE0=Ik gaf je mijn hart
TTITLE1=Calypso
TTITLE2=Geluk kan komen en gaan
TTITLE3=Rozen zijn rood
TTITLE4=We dansen de nacht voorbij
TTITLE5=Altijd bij mij
TTITLE6=Mijn hart bleef in L.A.
TTITLE7=Zomaar een meisje
TTITLE8=Zo alleen
TTITLE9=Ze blijft je vrouw
TTITLE10=Mississippi
TTITLE11=De zilveren maan
TTITLE12=Liefde houdt ons bij elkaar
EXTD=
EXTT0=
EXTT1=
EXTT2=
EXTT3=
EXTT4=
EXTT5=
EXTT6=
EXTT7=
EXTT8=
EXTT9=
EXTT10=
EXTT11=
EXTT12=
PLAYORDER=
